<?xml version="1.0" standalone="no"?><!DOCTYPE svg PUBLIC "-//W3C//DTD SVG 1.1//EN" "http://www.w3.org/Graphics/SVG/1.1/DTD/svg11.dtd"><svg t="1608519641248" class="icon" viewBox="0 0 1024 1024" version="1.1" xmlns="http://www.w3.org/2000/svg" p-id="3090" width="32" height="32" xmlns:xlink="http://www.w3.org/1999/xlink"><defs><style type="text/css"></style></defs><path d="M213.333 213.333v128a42.667 42.667 0 1 1-85.333 0V170.667A42.667 42.667 0 0 1 170.667 128h170.666a42.667 42.667 0 1 1 0 85.333h-128z m0 597.334h128a42.667 42.667 0 0 1 0 85.333H170.667A42.667 42.667 0 0 1 128 853.333V682.667a42.667 42.667 0 0 1 85.333 0v128z m597.334-597.334h-128a42.667 42.667 0 0 1 0-85.333h170.666A42.667 42.667 0 0 1 896 170.667v170.666a42.667 42.667 0 0 1-85.333 0v-128z m0 597.334v-128a42.667 42.667 0 0 1 85.333 0v170.666A42.667 42.667 0 0 1 853.333 896H682.667a42.667 42.667 0 0 1 0-85.333h128z" p-id="3091" fill="#515151"></path></svg>